<?xml version="1.0" encoding="utf-8"?>
<!-- Generator: Adobe Illustrator 21.0.2, SVG Export Plug-In . SVG Version: 6.00 Build 0)  -->
<svg version="1.1" id="Layer_1" xmlns="http://www.w3.org/2000/svg" xmlns:xlink="http://www.w3.org/1999/xlink" x="0px" y="0px"
	 viewBox="0 0 28.9 28.9" style="enable-background:new 0 0 28.9 28.9;" xml:space="preserve">
<style type="text/css">
	.st0{display:none;}
	.st1{display:inline;fill:#FEF6F8;}
	.st2{display:inline;fill-rule:evenodd;clip-rule:evenodd;fill:#343B3B;}
	.st3{display:inline;fill:#343B3B;}
	.st4{fill:#FEF6F8;}
	.st5{fill:#343B3B;}
</style>
<g class="st0">
	<rect class="st1" width="28.9" height="28.9"/>
	<path class="st2" d="M16.9,9.3c0.5,0,1,0,1.5,0c0.1,0,0.1,0,0.2,0V6.8c-0.3,0-0.5-0.1-0.8-0.1c-0.5,0-1,0-1.5,0
		c-0.8,0-1.5,0.2-2.1,0.7c-0.7,0.5-1.1,1.2-1.3,2.1c-0.1,0.4-0.1,0.7-0.1,1.1c0,0.6,0,1.1,0,1.7v0.2h-2.4v2.8h2.4v7.1h2.9v-7.1h2.4
		c0.1-0.9,0.2-1.9,0.4-2.8c-0.2,0-0.4,0-0.5,0c-0.7,0-2.2,0-2.2,0s0-1.4,0-2C15.7,9.6,16.2,9.3,16.9,9.3z"/>
</g>
<g id="Layer_2" class="st0">
	<rect class="st1" width="28.9" height="28.9"/>
	<path class="st3" d="M20.7,18.1c0,0.2,0,0.4-0.2,0.5l-1.8,1.8c-0.1,0.1-0.2,0.2-0.3,0.2c-0.1,0.1-0.3,0.1-0.4,0.1c0,0,0,0-0.1,0
		c0,0-0.1,0-0.2,0c-0.2,0-0.4,0-0.8-0.1c-0.4-0.1-0.8-0.2-1.4-0.4c-0.5-0.2-1.2-0.6-1.9-1c-0.7-0.5-1.4-1.1-2.2-1.9
		c-0.6-0.6-1.1-1.2-1.5-1.8C9.6,15,9.3,14.5,9,14c-0.2-0.5-0.4-0.9-0.6-1.3c-0.1-0.4-0.2-0.7-0.3-1c0-0.3-0.1-0.5-0.1-0.7
		c0-0.2,0-0.2,0-0.3c0-0.1,0.1-0.3,0.1-0.4c0.1-0.1,0.1-0.2,0.2-0.3l1.8-1.8c0.1-0.1,0.3-0.2,0.4-0.2c0.1,0,0.2,0,0.3,0.1
		c0.1,0.1,0.2,0.1,0.2,0.2l1.4,2.7c0.1,0.1,0.1,0.3,0.1,0.5c0,0.2-0.1,0.3-0.2,0.4l-0.7,0.7c0,0,0,0,0,0.1c0,0,0,0.1,0,0.1
		c0,0.2,0.1,0.4,0.2,0.6c0.1,0.2,0.3,0.5,0.5,0.8c0.2,0.3,0.5,0.7,0.9,1.1c0.4,0.4,0.8,0.7,1.1,1c0.3,0.2,0.6,0.4,0.8,0.5
		c0.2,0.1,0.4,0.2,0.5,0.2l0.2,0c0,0,0,0,0.1,0c0,0,0.1,0,0.1,0l0.8-0.8c0.2-0.1,0.3-0.2,0.6-0.2c0.2,0,0.3,0,0.4,0.1h0l2.6,1.5
		C20.6,17.8,20.7,17.9,20.7,18.1z"/>
</g>
<g>
	<rect class="st4" width="28.9" height="28.9"/>
	<path class="st5" d="M14.7,17.2l-2.1-1.8l-5.9,5.1c0.2,0.2,0.5,0.3,0.8,0.3h14.4c0.3,0,0.6-0.1,0.8-0.3l-5.9-5.1L14.7,17.2z"/>
	<path class="st5" d="M22.7,9.1c-0.2-0.2-0.5-0.3-0.8-0.3H7.5c-0.3,0-0.6,0.1-0.8,0.3l8,6.9L22.7,9.1z"/>
	<polygon class="st5" points="6.3,9.9 6.3,19.8 12.1,14.9 	"/>
	<polygon class="st5" points="17.3,14.9 23.1,19.8 23.1,9.9 	"/>
</g>
</svg>
