<?xml version="1.0" encoding="utf-8"?>
<!-- Generator: Adobe Illustrator 21.0.2, SVG Export Plug-In . SVG Version: 6.00 Build 0)  -->
<svg version="1.1" id="Layer_1" xmlns="http://www.w3.org/2000/svg" xmlns:xlink="http://www.w3.org/1999/xlink" x="0px" y="0px"
	 viewBox="0 0 28.9 28.9" style="enable-background:new 0 0 28.9 28.9;" xml:space="preserve">
<style type="text/css">
	.st0{display:none;}
	.st1{display:inline;fill:#FEF6F8;}
	.st2{display:inline;fill-rule:evenodd;clip-rule:evenodd;fill:#EA5453;}
	.st3{fill:#FEF6F8;}
	.st4{fill-rule:evenodd;clip-rule:evenodd;fill:#EA5453;}
</style>
<g class="st0">
	<rect class="st1" width="28.9" height="28.9"/>
	<path class="st2" d="M16.9,9.3c0.5,0,1,0,1.5,0c0.1,0,0.1,0,0.2,0V6.8c-0.3,0-0.5-0.1-0.8-0.1c-0.5,0-1,0-1.5,0
		c-0.8,0-1.5,0.2-2.1,0.7c-0.7,0.5-1.1,1.2-1.3,2.1c-0.1,0.4-0.1,0.7-0.1,1.1c0,0.6,0,1.1,0,1.7v0.2h-2.4v2.8h2.4v7.1h2.9v-7.1h2.4
		c0.1-0.9,0.2-1.9,0.4-2.8c-0.2,0-0.4,0-0.5,0c-0.7,0-2.2,0-2.2,0s0-1.4,0-2C15.7,9.6,16.2,9.3,16.9,9.3z"/>
</g>
<g>
	<rect x="0" y="0" class="st3" width="28.9" height="28.9"/>
	<path class="st4" d="M8,19.8c-0.6-0.2-1-0.6-1.2-1.2c-0.5-1.5-0.7-7.7,0.3-8.9C7.5,9.3,7.9,9.1,8.5,9c2.8-0.3,11.4-0.3,12.4,0.1
		c0.6,0.2,1,0.6,1.2,1.2c0.6,1.5,0.6,7.1-0.1,8.6c-0.2,0.4-0.5,0.7-0.9,0.9C20.1,20.3,9.4,20.3,8,19.8z M12.4,16.9
		c1.7-0.9,3.3-1.7,5-2.6c-1.7-0.9-3.3-1.7-5-2.6C12.4,13.4,12.4,15.2,12.4,16.9z"/>
</g>
</svg>
